<svg width="132" height="64" viewBox="0 0 132 64" fill="none" xmlns="http://www.w3.org/2000/svg">
<path d="M10.744 25.856H16.696V37.632H23.992V42.304H16.696V64H10.744V42.304H5.88V37.632H10.744V25.856ZM36.496 37.504L37.072 45.184L36.752 44.16C37.4347 42.5387 38.416 41.1733 39.696 40.064C41.0187 38.912 42.384 38.0373 43.792 37.44C45.2427 36.8 46.5013 36.48 47.568 36.48L47.248 42.368C45.2427 42.24 43.472 42.624 41.936 43.52C40.4427 44.416 39.248 45.6107 38.352 47.104C37.4987 48.5973 37.072 50.1973 37.072 51.904V64H31.184V37.504H36.496ZM55.2465 37.504H61.1985V64H55.2465V37.504ZM54.7985 27.904C54.7985 26.9653 55.1612 26.176 55.8865 25.536C56.6545 24.896 57.4865 24.576 58.3825 24.576C59.2785 24.576 60.0678 24.896 60.7505 25.536C61.4758 26.176 61.8385 26.9653 61.8385 27.904C61.8385 28.8853 61.4758 29.696 60.7505 30.336C60.0678 30.9333 59.2785 31.232 58.3825 31.232C57.4865 31.232 56.6545 30.912 55.8865 30.272C55.1612 29.632 54.7985 28.8427 54.7985 27.904ZM120.247 37.504H126.199V64H120.247V37.504ZM119.799 27.904C119.799 26.9653 120.161 26.176 120.887 25.536C121.655 24.896 122.487 24.576 123.383 24.576C124.279 24.576 125.068 24.896 125.751 25.536C126.476 26.176 126.839 26.9653 126.839 27.904C126.839 28.8853 126.476 29.696 125.751 30.336C125.068 30.9333 124.279 31.232 123.383 31.232C122.487 31.232 121.655 30.912 120.887 30.272C120.161 29.632 119.799 28.8427 119.799 27.904Z" fill="#282A36"/>
<path d="M71.4965 14.464H77.4485V64H71.4965V14.464Z" fill="#FFCD4B"/>
<path d="M87.7465 14.464H93.6985V64H87.7465V14.464Z" fill="#FB5C5C"/>
<path d="M103.997 14.464H109.949V64H103.997V14.464Z" fill="#BA0531"/>
<rect x="68" width="43" height="15" fill="white"/>
</svg>
