<svg width="400" height="400" viewBox="0 0 400 400" fill="none" xmlns="http://www.w3.org/2000/svg">
<rect width="400" height="400" rx="25" fill="url(#paint0_linear_186_228)"/>
<g filter="url(#filter0_d_186_228)">
<path d="M265.277 58.001C265.277 58.001 289.046 68.0394 291.244 102.567C293.443 137.099 271.136 150.082 271.136 150.082C271.136 150.082 247.363 140.043 245.167 105.515C242.968 70.9819 265.277 58.001 265.277 58.001Z" fill="#72BD39"/>
<path d="M291.244 102.567C289.047 68.0376 265.277 58 265.277 58C265.277 58 265.135 58.0842 264.898 58.2383L270.739 149.9C270.987 150.019 271.136 150.082 271.136 150.082C271.136 150.082 293.443 137.099 291.244 102.567Z" fill="#51A448"/>
<path d="M258.119 300.921C297.547 261.479 310.391 208.557 291.274 174.483C291.867 174.032 292.449 173.55 292.992 173.009C299.41 166.587 299.41 156.175 292.992 149.751C286.572 143.329 276.163 143.329 269.744 149.751C269.203 150.293 268.721 150.874 268.271 151.47C234.208 132.346 181.303 145.195 141.88 184.634C102.453 224.075 89.6081 276.994 108.726 311.069C108.134 311.522 107.551 312.001 107.008 312.543C100.589 318.965 100.589 329.378 107.008 335.797C113.429 342.219 123.835 342.219 130.255 335.797C130.798 335.253 131.278 334.674 131.728 334.079C165.792 353.207 218.695 340.359 258.119 300.921Z" fill="#FFF700"/>
<path d="M291.274 174.482C291.868 174.031 292.45 173.549 292.993 173.008C299.411 166.586 299.411 156.174 292.993 149.75C292.926 149.684 292.854 149.628 292.785 149.563L106.566 335.31C106.716 335.472 106.851 335.642 107.009 335.799C113.431 342.221 123.837 342.221 130.257 335.799C130.8 335.255 131.28 334.676 131.73 334.08C165.793 353.204 218.698 340.354 258.121 300.917C297.548 261.476 310.391 208.556 291.274 174.482Z" fill="#EDE500"/>
</g>
<defs>
<filter id="filter0_d_186_228" x="100" y="58" width="200" height="284.81" filterUnits="userSpaceOnUse" color-interpolation-filters="sRGB">
<feFlood flood-opacity="0" result="BackgroundImageFix"/>
<feColorMatrix in="SourceAlpha" type="matrix" values="0 0 0 0 0 0 0 0 0 0 0 0 0 0 0 0 0 0 127 0" result="hardAlpha"/>
<feOffset/>
<feComposite in2="hardAlpha" operator="out"/>
<feColorMatrix type="matrix" values="0 0 0 0 0 0 0 0 0 0 0 0 0 0 0 0 0 0 0.25 0"/>
<feBlend mode="normal" in2="BackgroundImageFix" result="effect1_dropShadow_186_228"/>
<feBlend mode="normal" in="SourceGraphic" in2="effect1_dropShadow_186_228" result="shape"/>
</filter>
<linearGradient id="paint0_linear_186_228" x1="-101.5" y1="504" x2="432.451" y2="37.1125" gradientUnits="userSpaceOnUse">
<stop stop-color="#FFFA82"/>
<stop offset="1" stop-color="#E44B45"/>
</linearGradient>
</defs>
</svg>
