<svg width="129" height="50" viewBox="0 0 129 50" fill="none" xmlns="http://www.w3.org/2000/svg">
<path d="M7.744 11.856H13.696V23.632H20.992V28.304H13.696V50H7.744V28.304H2.88V23.632H7.744V11.856ZM33.496 23.504L34.072 31.184L33.752 30.16C34.4347 28.5387 35.416 27.1733 36.696 26.064C38.0187 24.912 39.384 24.0373 40.792 23.44C42.2427 22.8 43.5013 22.48 44.568 22.48L44.248 28.368C42.2427 28.24 40.472 28.624 38.936 29.52C37.4427 30.416 36.248 31.6107 35.352 33.104C34.4987 34.5973 34.072 36.1973 34.072 37.904V50H28.184V23.504H33.496ZM52.2465 23.504H58.1985V50H52.2465V23.504ZM51.7985 13.904C51.7985 12.9653 52.1612 12.176 52.8865 11.536C53.6545 10.896 54.4865 10.576 55.3825 10.576C56.2785 10.576 57.0678 10.896 57.7505 11.536C58.4758 12.176 58.8385 12.9653 58.8385 13.904C58.8385 14.8853 58.4758 15.696 57.7505 16.336C57.0678 16.9333 56.2785 17.232 55.3825 17.232C54.4865 17.232 53.6545 16.912 52.8865 16.272C52.1612 15.632 51.7985 14.8427 51.7985 13.904ZM117.247 23.504H123.199V50H117.247V23.504ZM116.799 13.904C116.799 12.9653 117.161 12.176 117.887 11.536C118.655 10.896 119.487 10.576 120.383 10.576C121.279 10.576 122.068 10.896 122.751 11.536C123.476 12.176 123.839 12.9653 123.839 13.904C123.839 14.8853 123.476 15.696 122.751 16.336C122.068 16.9333 121.279 17.232 120.383 17.232C119.487 17.232 118.655 16.912 117.887 16.272C117.161 15.632 116.799 14.8427 116.799 13.904Z" fill="#282A36"/>
<path d="M68.4965 0.463997H74.4485V50H68.4965V0.463997Z" fill="#FFCD4B"/>
<path d="M84.7465 0.463997H90.6985V50H84.7465V0.463997Z" fill="#FB5C5C"/>
<path d="M100.997 0.463997H106.949V50H100.997V0.463997Z" fill="#BA0531"/>
</svg>
