<svg width="1063" height="355" viewBox="0 0 1063 355" fill="none" xmlns="http://www.w3.org/2000/svg">
<mask id="path-1-outside-1_186_225" maskUnits="userSpaceOnUse" x="86" y="60" width="681" height="237" fill="black">
<rect fill="white" x="86" y="60" width="681" height="237"/>
<path d="M98.056 280V241.372L163.324 172.404H98.056V134.22H214.976V172.404L153.26 241.372H214.976V280H98.056ZM316.238 284.736C304.003 284.736 292.509 281.579 281.754 275.264C270.999 268.949 262.267 259.921 255.558 248.18C248.947 236.439 245.642 222.527 245.642 206.444C245.642 190.361 248.947 176.597 255.558 165.152C262.169 153.608 270.851 144.777 281.606 138.66C292.361 132.543 303.905 129.484 316.238 129.484C328.473 129.484 339.129 131.951 348.206 136.884C357.283 141.719 364.585 148.28 370.11 156.568C375.734 164.856 379.385 174.229 381.062 184.688C382.838 195.048 382.493 205.753 380.026 216.804H283.086V192.828H345.394L338.586 197.268C338.882 193.815 338.734 190.312 338.142 186.76C337.649 183.208 336.613 179.952 335.034 176.992C333.455 173.933 331.186 171.516 328.226 169.74C325.365 167.865 321.665 166.928 317.126 166.928C312.094 166.928 307.703 168.161 303.954 170.628C300.303 172.996 297.442 176.499 295.37 181.136C293.397 185.675 292.41 191.249 292.41 197.86V216.508C292.41 222.724 293.298 228.101 295.074 232.64C296.85 237.179 299.465 240.731 302.918 243.296C306.47 245.763 310.91 246.996 316.238 246.996C320.579 246.996 324.378 246.108 327.634 244.332C330.89 242.556 333.159 239.744 334.442 235.896H381.506C380.026 244.973 376.375 253.212 370.554 260.612C364.831 268.012 357.333 273.883 348.058 278.224C338.882 282.565 328.275 284.736 316.238 284.736ZM476.478 284.736C462.566 284.736 450.282 282.911 439.626 279.26C428.97 275.511 420.633 269.936 414.614 262.536C408.694 255.037 405.783 245.615 405.882 234.268H448.654C448.851 239.399 450.825 242.951 454.574 244.924C458.422 246.897 463.602 247.884 470.114 247.884C474.061 247.884 477.317 247.391 479.882 246.404C482.447 245.417 484.371 244.135 485.654 242.556C486.937 240.879 487.578 239.103 487.578 237.228C487.578 234.761 486.69 232.788 484.914 231.308C483.138 229.828 480.375 228.348 476.626 226.868L441.254 213.104C430.795 208.763 422.705 203.287 416.982 196.676C411.358 189.967 408.546 182.024 408.546 172.848C408.546 159.923 414.515 149.464 426.454 141.472C438.393 133.48 454.722 129.484 475.442 129.484C494.879 129.484 509.827 134.023 520.286 143.1C530.745 152.177 536.023 163.721 536.122 177.732H492.758C492.758 174.575 491.426 171.861 488.762 169.592C486.098 167.224 481.658 166.04 475.442 166.04C470.311 166.04 466.266 166.879 463.306 168.556C460.346 170.233 458.866 172.453 458.866 175.216C458.866 178.965 461.974 181.925 468.19 184.096L508.446 200.228C518.411 204.175 526.255 209.108 531.978 215.028C537.701 220.948 540.562 228.348 540.562 237.228C540.562 245.319 537.75 253.015 532.126 260.316C526.601 267.519 519.003 273.389 509.334 277.928C499.665 282.467 488.713 284.736 476.478 284.736ZM630.634 284.736C621.359 284.736 612.677 283.059 604.586 279.704C596.594 276.349 590.131 271.12 585.198 264.016C580.363 256.813 577.946 247.588 577.946 236.34V97.368H625.602V234.564C625.602 243.444 629.993 247.884 638.774 247.884C641.537 247.884 644.447 247.588 647.506 246.996C650.663 246.305 654.314 245.22 658.458 243.74L665.414 276.744C659.395 278.915 653.623 280.789 648.098 282.368C642.671 283.947 636.85 284.736 630.634 284.736ZM560.63 164.856V134.22H658.754V164.856H560.63ZM700.509 201.856L695.773 72.208H747.573L742.245 201.856H700.509ZM721.821 282.664C712.447 282.664 704.801 279.852 698.881 274.228C693.059 268.505 690.149 261.155 690.149 252.176C690.149 243.592 693.059 236.389 698.881 230.568C704.801 224.747 712.447 221.836 721.821 221.836C731.095 221.836 738.791 224.747 744.909 230.568C751.026 236.389 754.085 243.592 754.085 252.176C754.085 261.155 751.026 268.505 744.909 274.228C738.791 279.852 731.095 282.664 721.821 282.664Z"/>
</mask>
<path d="M98.056 280V241.372L163.324 172.404H98.056V134.22H214.976V172.404L153.26 241.372H214.976V280H98.056ZM316.238 284.736C304.003 284.736 292.509 281.579 281.754 275.264C270.999 268.949 262.267 259.921 255.558 248.18C248.947 236.439 245.642 222.527 245.642 206.444C245.642 190.361 248.947 176.597 255.558 165.152C262.169 153.608 270.851 144.777 281.606 138.66C292.361 132.543 303.905 129.484 316.238 129.484C328.473 129.484 339.129 131.951 348.206 136.884C357.283 141.719 364.585 148.28 370.11 156.568C375.734 164.856 379.385 174.229 381.062 184.688C382.838 195.048 382.493 205.753 380.026 216.804H283.086V192.828H345.394L338.586 197.268C338.882 193.815 338.734 190.312 338.142 186.76C337.649 183.208 336.613 179.952 335.034 176.992C333.455 173.933 331.186 171.516 328.226 169.74C325.365 167.865 321.665 166.928 317.126 166.928C312.094 166.928 307.703 168.161 303.954 170.628C300.303 172.996 297.442 176.499 295.37 181.136C293.397 185.675 292.41 191.249 292.41 197.86V216.508C292.41 222.724 293.298 228.101 295.074 232.64C296.85 237.179 299.465 240.731 302.918 243.296C306.47 245.763 310.91 246.996 316.238 246.996C320.579 246.996 324.378 246.108 327.634 244.332C330.89 242.556 333.159 239.744 334.442 235.896H381.506C380.026 244.973 376.375 253.212 370.554 260.612C364.831 268.012 357.333 273.883 348.058 278.224C338.882 282.565 328.275 284.736 316.238 284.736ZM476.478 284.736C462.566 284.736 450.282 282.911 439.626 279.26C428.97 275.511 420.633 269.936 414.614 262.536C408.694 255.037 405.783 245.615 405.882 234.268H448.654C448.851 239.399 450.825 242.951 454.574 244.924C458.422 246.897 463.602 247.884 470.114 247.884C474.061 247.884 477.317 247.391 479.882 246.404C482.447 245.417 484.371 244.135 485.654 242.556C486.937 240.879 487.578 239.103 487.578 237.228C487.578 234.761 486.69 232.788 484.914 231.308C483.138 229.828 480.375 228.348 476.626 226.868L441.254 213.104C430.795 208.763 422.705 203.287 416.982 196.676C411.358 189.967 408.546 182.024 408.546 172.848C408.546 159.923 414.515 149.464 426.454 141.472C438.393 133.48 454.722 129.484 475.442 129.484C494.879 129.484 509.827 134.023 520.286 143.1C530.745 152.177 536.023 163.721 536.122 177.732H492.758C492.758 174.575 491.426 171.861 488.762 169.592C486.098 167.224 481.658 166.04 475.442 166.04C470.311 166.04 466.266 166.879 463.306 168.556C460.346 170.233 458.866 172.453 458.866 175.216C458.866 178.965 461.974 181.925 468.19 184.096L508.446 200.228C518.411 204.175 526.255 209.108 531.978 215.028C537.701 220.948 540.562 228.348 540.562 237.228C540.562 245.319 537.75 253.015 532.126 260.316C526.601 267.519 519.003 273.389 509.334 277.928C499.665 282.467 488.713 284.736 476.478 284.736ZM630.634 284.736C621.359 284.736 612.677 283.059 604.586 279.704C596.594 276.349 590.131 271.12 585.198 264.016C580.363 256.813 577.946 247.588 577.946 236.34V97.368H625.602V234.564C625.602 243.444 629.993 247.884 638.774 247.884C641.537 247.884 644.447 247.588 647.506 246.996C650.663 246.305 654.314 245.22 658.458 243.74L665.414 276.744C659.395 278.915 653.623 280.789 648.098 282.368C642.671 283.947 636.85 284.736 630.634 284.736ZM560.63 164.856V134.22H658.754V164.856H560.63ZM700.509 201.856L695.773 72.208H747.573L742.245 201.856H700.509ZM721.821 282.664C712.447 282.664 704.801 279.852 698.881 274.228C693.059 268.505 690.149 261.155 690.149 252.176C690.149 243.592 693.059 236.389 698.881 230.568C704.801 224.747 712.447 221.836 721.821 221.836C731.095 221.836 738.791 224.747 744.909 230.568C751.026 236.389 754.085 243.592 754.085 252.176C754.085 261.155 751.026 268.505 744.909 274.228C738.791 279.852 731.095 282.664 721.821 282.664Z" fill="white"/>
<path d="M98.056 280H86.056V292H98.056V280ZM98.056 241.372L89.3401 233.124L86.056 236.594V241.372H98.056ZM163.324 172.404L172.04 180.652L191.202 160.404H163.324V172.404ZM98.056 172.404H86.056V184.404H98.056V172.404ZM98.056 134.22V122.22H86.056V134.22H98.056ZM214.976 134.22H226.976V122.22H214.976V134.22ZM214.976 172.404L223.918 180.406L226.976 176.989V172.404H214.976ZM153.26 241.372L144.318 233.37L126.419 253.372H153.26V241.372ZM214.976 241.372H226.976V229.372H214.976V241.372ZM214.976 280V292H226.976V280H214.976ZM110.056 280V241.372H86.056V280H110.056ZM106.772 249.62L172.04 180.652L154.608 164.156L89.3401 233.124L106.772 249.62ZM163.324 160.404H98.056V184.404H163.324V160.404ZM110.056 172.404V134.22H86.056V172.404H110.056ZM98.056 146.22H214.976V122.22H98.056V146.22ZM202.976 134.22V172.404H226.976V134.22H202.976ZM206.034 164.402L144.318 233.37L162.202 249.374L223.918 180.406L206.034 164.402ZM153.26 253.372H214.976V229.372H153.26V253.372ZM202.976 241.372V280H226.976V241.372H202.976ZM214.976 268H98.056V292H214.976V268ZM281.754 275.264L287.83 264.916L287.83 264.916L281.754 275.264ZM255.558 248.18L245.102 254.067L245.12 254.101L245.139 254.134L255.558 248.18ZM255.558 165.152L265.949 171.154L265.96 171.135L265.972 171.115L255.558 165.152ZM281.606 138.66L287.539 149.091L287.539 149.091L281.606 138.66ZM348.206 136.884L342.476 147.427L342.52 147.452L342.565 147.475L348.206 136.884ZM370.11 156.568L360.125 163.224L360.153 163.265L360.18 163.306L370.11 156.568ZM381.062 184.688L369.213 186.588L369.224 186.652L369.235 186.716L381.062 184.688ZM380.026 216.804V228.804H389.643L391.738 219.418L380.026 216.804ZM283.086 216.804H271.086V228.804H283.086V216.804ZM283.086 192.828V180.828H271.086V192.828H283.086ZM345.394 192.828L351.949 202.879L385.761 180.828H345.394V192.828ZM338.586 197.268L326.63 196.243L324.528 220.763L345.141 207.319L338.586 197.268ZM338.142 186.76L326.256 188.411L326.279 188.572L326.305 188.733L338.142 186.76ZM335.034 176.992L324.371 182.496L324.408 182.568L324.446 182.639L335.034 176.992ZM328.226 169.74L321.65 179.778L321.848 179.908L322.052 180.03L328.226 169.74ZM303.954 170.628L310.484 180.696L310.517 180.674L310.549 180.653L303.954 170.628ZM295.37 181.136L284.414 176.241L284.389 176.296L284.365 176.351L295.37 181.136ZM302.918 243.296L295.762 252.929L295.916 253.043L296.073 253.152L302.918 243.296ZM327.634 244.332L321.888 233.797L321.888 233.797L327.634 244.332ZM334.442 235.896V223.896H325.793L323.058 232.101L334.442 235.896ZM381.506 235.896L393.35 237.827L395.621 223.896H381.506V235.896ZM370.554 260.612L361.123 253.193L361.092 253.232L361.061 253.271L370.554 260.612ZM348.058 278.224L342.971 267.356L342.948 267.366L342.926 267.377L348.058 278.224ZM316.238 272.736C306.183 272.736 296.78 270.171 287.83 264.916L275.678 285.612C288.238 292.986 301.824 296.736 316.238 296.736V272.736ZM287.83 264.916C279.033 259.75 271.737 252.307 265.977 242.226L245.139 254.134C252.797 267.536 262.966 278.148 275.678 285.612L287.83 264.916ZM266.015 242.293C260.595 232.667 257.642 220.864 257.642 206.444H233.642C233.642 224.19 237.3 240.21 245.102 254.067L266.015 242.293ZM257.642 206.444C257.642 192.013 260.599 180.417 265.949 171.154L245.167 159.15C237.296 172.778 233.642 188.709 233.642 206.444H257.642ZM265.972 171.115C271.598 161.289 278.791 154.067 287.539 149.091L275.673 128.229C262.912 135.488 252.739 145.927 245.145 159.189L265.972 171.115ZM287.539 149.091C296.492 143.998 305.992 141.484 316.238 141.484V117.484C301.817 117.484 288.23 121.087 275.673 128.229L287.539 149.091ZM316.238 141.484C326.84 141.484 335.455 143.612 342.476 147.427L353.936 126.34C342.802 120.29 330.106 117.484 316.238 117.484V141.484ZM342.565 147.475C349.951 151.409 355.737 156.642 360.125 163.224L380.095 149.912C373.432 139.918 364.616 132.028 353.847 126.293L342.565 147.475ZM360.18 163.306C364.762 170.058 367.798 177.761 369.213 186.588L392.911 182.788C390.972 170.697 386.706 159.654 380.04 149.83L360.18 163.306ZM369.235 186.716C370.727 195.42 370.467 204.545 368.314 214.19L391.738 219.418C394.518 206.961 394.949 194.676 392.89 182.66L369.235 186.716ZM380.026 204.804H283.086V228.804H380.026V204.804ZM295.086 216.804V192.828H271.086V216.804H295.086ZM283.086 204.828H345.394V180.828H283.086V204.828ZM338.839 182.777L332.031 187.217L345.141 207.319L351.949 202.879L338.839 182.777ZM350.542 198.293C350.927 193.801 350.729 189.291 349.979 184.787L326.305 188.733C326.739 191.333 326.837 193.828 326.63 196.243L350.542 198.293ZM350.028 185.109C349.354 180.256 347.91 175.634 345.622 171.345L324.446 182.639C325.316 184.27 325.944 186.16 326.256 188.411L350.028 185.109ZM345.698 171.488C343.093 166.442 339.266 162.37 334.4 159.45L322.052 180.03C323.106 180.662 323.818 181.425 324.371 182.496L345.698 171.488ZM334.802 159.702C329.443 156.191 323.253 154.928 317.126 154.928V178.928C320.077 178.928 321.287 179.54 321.65 179.778L334.802 159.702ZM317.126 154.928C310.044 154.928 303.298 156.695 297.359 160.603L310.549 180.653C312.109 179.627 314.144 178.928 317.126 178.928V154.928ZM297.424 160.56C291.522 164.388 287.27 169.849 284.414 176.241L306.326 186.031C307.614 183.148 309.084 181.604 310.484 180.696L297.424 160.56ZM284.365 176.351C281.555 182.815 280.41 190.126 280.41 197.86H304.41C304.41 192.372 305.239 188.534 306.375 185.921L284.365 176.351ZM280.41 197.86V216.508H304.41V197.86H280.41ZM280.41 216.508C280.41 223.826 281.451 230.755 283.899 237.013L306.249 228.267C305.145 225.447 304.41 221.622 304.41 216.508H280.41ZM283.899 237.013C286.383 243.361 290.271 248.85 295.762 252.929L310.074 233.663C308.658 232.612 307.317 230.996 306.249 228.267L283.899 237.013ZM296.073 253.152C302.06 257.31 309.037 258.996 316.238 258.996V234.996C312.783 234.996 310.88 234.216 309.763 233.44L296.073 253.152ZM316.238 258.996C322.244 258.996 328.083 257.756 333.38 254.867L321.888 233.797C320.673 234.46 318.915 234.996 316.238 234.996V258.996ZM333.38 254.867C339.56 251.496 343.682 246.124 345.826 239.691L323.058 232.101C322.637 233.364 322.22 233.616 321.888 233.797L333.38 254.867ZM334.442 247.896H381.506V223.896H334.442V247.896ZM369.662 233.965C368.517 240.989 365.72 247.349 361.123 253.193L379.986 268.031C387.031 259.075 391.535 248.957 393.35 237.827L369.662 233.965ZM361.061 253.271C356.614 259.023 350.684 263.745 342.971 267.356L353.145 289.092C363.981 284.02 373.049 277.001 380.047 267.953L361.061 253.271ZM342.926 267.377C335.625 270.831 326.827 272.736 316.238 272.736V296.736C329.724 296.736 342.139 294.3 353.19 289.071L342.926 267.377ZM439.626 279.26L435.643 290.58L435.69 290.596L435.737 290.612L439.626 279.26ZM414.614 262.536L405.196 269.972L405.25 270.04L405.305 270.108L414.614 262.536ZM405.882 234.268V222.268H393.986L393.883 234.164L405.882 234.268ZM448.654 234.268L460.645 233.807L460.201 222.268H448.654V234.268ZM454.574 244.924L448.985 255.543L449.042 255.573L449.098 255.602L454.574 244.924ZM479.882 246.404L475.574 235.204L475.574 235.204L479.882 246.404ZM485.654 242.556L494.967 250.123L495.079 249.986L495.186 249.845L485.654 242.556ZM484.914 231.308L492.596 222.089L492.596 222.089L484.914 231.308ZM476.626 226.868L481.032 215.706L481.005 215.695L480.978 215.685L476.626 226.868ZM441.254 213.104L436.654 224.187L436.777 224.239L436.903 224.287L441.254 213.104ZM416.982 196.676L407.786 204.385L407.847 204.458L407.909 204.53L416.982 196.676ZM426.454 141.472L433.13 151.444L433.13 151.444L426.454 141.472ZM536.122 177.732V189.732H548.207L548.122 177.647L536.122 177.732ZM492.758 177.732H480.758V189.732H492.758V177.732ZM488.762 169.592L480.79 178.561L480.884 178.645L480.981 178.727L488.762 169.592ZM463.306 168.556L469.222 178.996L469.222 178.996L463.306 168.556ZM468.19 184.096L472.654 172.957L472.402 172.856L472.146 172.767L468.19 184.096ZM508.446 200.228L503.982 211.367L504.005 211.376L504.028 211.385L508.446 200.228ZM531.978 215.028L540.606 206.688L540.606 206.688L531.978 215.028ZM532.126 260.316L522.619 252.993L522.612 253.003L522.605 253.012L532.126 260.316ZM509.334 277.928L504.235 267.065L504.235 267.065L509.334 277.928ZM476.478 272.736C463.59 272.736 452.665 271.042 443.515 267.908L435.737 290.612C447.899 294.779 461.542 296.736 476.478 296.736V272.736ZM443.609 267.94C434.651 264.789 428.307 260.354 423.924 254.964L405.305 270.108C412.958 279.518 423.289 286.233 435.643 290.58L443.609 267.94ZM424.033 255.1C420.111 250.132 417.802 243.519 417.882 234.372L393.883 234.164C393.765 247.71 397.278 259.942 405.196 269.972L424.033 255.1ZM405.882 246.268H448.654V222.268H405.882V246.268ZM436.663 234.729C436.984 243.078 440.579 251.119 448.985 255.543L460.163 234.305C460.16 234.303 460.189 234.318 460.24 234.355C460.292 234.392 460.358 234.445 460.43 234.515C460.586 234.666 460.702 234.827 460.772 234.952C460.909 235.199 460.69 234.974 460.645 233.807L436.663 234.729ZM449.098 255.602C455.282 258.773 462.58 259.884 470.114 259.884V235.884C464.624 235.884 461.562 235.022 460.05 234.246L449.098 255.602ZM470.114 259.884C474.945 259.884 479.791 259.296 484.19 257.604L475.574 235.204C474.843 235.485 473.177 235.884 470.114 235.884V259.884ZM484.19 257.604C488.051 256.119 491.978 253.803 494.967 250.123L476.341 234.989C476.555 234.726 476.687 234.654 476.593 234.717C476.489 234.787 476.182 234.97 475.574 235.204L484.19 257.604ZM495.186 249.845C497.857 246.353 499.578 242.067 499.578 237.228H475.578C475.578 236.765 475.663 236.3 475.81 235.89C475.953 235.496 476.105 235.289 476.122 235.267L495.186 249.845ZM499.578 237.228C499.578 231.472 497.311 226.018 492.596 222.089L477.232 240.527C476.819 240.183 476.323 239.608 475.969 238.822C475.625 238.058 475.578 237.455 475.578 237.228H499.578ZM492.596 222.089C489.37 219.401 485.225 217.361 481.032 215.706L472.22 238.03C475.526 239.335 476.906 240.255 477.232 240.527L492.596 222.089ZM480.978 215.685L445.606 201.921L436.903 224.287L472.275 238.051L480.978 215.685ZM445.855 202.021C436.627 198.19 430.252 193.671 426.055 188.822L407.909 204.53C415.157 212.903 424.964 219.335 436.654 224.187L445.855 202.021ZM426.179 188.967C422.458 184.529 420.546 179.352 420.546 172.848H396.546C396.546 184.696 400.258 195.405 407.786 204.385L426.179 188.967ZM420.546 172.848C420.546 164.425 424.082 157.5 433.13 151.444L419.779 131.5C404.949 141.428 396.546 155.421 396.546 172.848H420.546ZM433.13 151.444C442.399 145.239 456.097 141.484 475.442 141.484V117.484C453.347 117.484 434.387 121.721 419.779 131.5L433.13 151.444ZM475.442 141.484C493.148 141.484 504.884 145.621 512.42 152.163L528.152 134.037C514.771 122.424 496.611 117.484 475.442 117.484V141.484ZM512.42 152.163C520.24 158.95 524.048 167.207 524.122 177.817L548.122 177.647C547.999 160.236 541.249 145.405 528.152 134.037L512.42 152.163ZM536.122 165.732H492.758V189.732H536.122V165.732ZM504.758 177.732C504.758 170.651 501.558 164.728 496.544 160.457L480.981 178.727C481.259 178.964 481.15 178.948 480.987 178.617C480.91 178.461 480.847 178.283 480.806 178.102C480.765 177.924 480.758 177.792 480.758 177.732H504.758ZM496.734 160.623C490.739 155.294 482.605 154.04 475.442 154.04V178.04C477.847 178.04 479.414 178.275 480.342 178.523C481.259 178.767 481.202 178.928 480.79 178.561L496.734 160.623ZM475.442 154.04C469.209 154.04 462.844 155.025 457.39 158.116L469.222 178.996C469.688 178.732 471.413 178.04 475.442 178.04V154.04ZM457.39 158.116C451.693 161.344 446.866 167.072 446.866 175.216H470.866C470.866 176.115 470.583 177.201 469.961 178.135C469.413 178.957 468.939 179.157 469.222 178.996L457.39 158.116ZM446.866 175.216C446.866 187.31 457.224 192.977 464.234 195.425L472.146 172.767C471.082 172.395 470.357 172.06 469.896 171.807C469.429 171.55 469.348 171.439 469.473 171.558C469.615 171.694 469.998 172.105 470.337 172.836C470.692 173.601 470.866 174.437 470.866 175.216H446.866ZM463.726 195.235L503.982 211.367L512.91 189.089L472.654 172.957L463.726 195.235ZM504.028 211.385C512.864 214.885 519.115 218.987 523.35 223.368L540.606 206.688C533.396 199.229 523.959 193.465 512.865 189.071L504.028 211.385ZM523.35 223.368C526.73 226.865 528.562 231.192 528.562 237.228H552.562C552.562 225.504 548.671 215.031 540.606 206.688L523.35 223.368ZM528.562 237.228C528.562 242.307 526.863 247.485 522.619 252.993L541.633 267.639C548.638 258.545 552.562 248.33 552.562 237.228H528.562ZM522.605 253.012C518.438 258.444 512.473 263.198 504.235 267.065L514.433 288.791C525.533 283.58 534.764 276.593 541.647 267.62L522.605 253.012ZM504.235 267.065C496.378 270.753 487.206 272.736 476.478 272.736V296.736C490.219 296.736 502.952 294.18 514.433 288.791L504.235 267.065ZM604.586 279.704L599.942 290.769L599.966 290.779L599.99 290.789L604.586 279.704ZM585.198 264.016L575.234 270.704L575.287 270.783L575.342 270.861L585.198 264.016ZM577.946 97.368V85.368H565.946V97.368H577.946ZM625.602 97.368H637.602V85.368H625.602V97.368ZM647.506 246.996L649.786 258.777L649.929 258.75L650.07 258.719L647.506 246.996ZM658.458 243.74L670.2 241.265L667.366 227.816L654.422 232.439L658.458 243.74ZM665.414 276.744L669.485 288.032L679.31 284.489L677.156 274.269L665.414 276.744ZM648.098 282.368L644.801 270.83L644.774 270.838L644.746 270.846L648.098 282.368ZM560.63 164.856H548.63V176.856H560.63V164.856ZM560.63 134.22V122.22H548.63V134.22H560.63ZM658.754 134.22H670.754V122.22H658.754V134.22ZM658.754 164.856V176.856H670.754V164.856H658.754ZM630.634 272.736C622.842 272.736 615.731 271.335 609.182 268.619L599.99 290.789C609.622 294.783 619.876 296.736 630.634 296.736V272.736ZM609.23 268.639C603.337 266.165 598.684 262.398 595.054 257.171L575.342 270.861C581.579 279.842 589.851 286.533 599.942 290.769L609.23 268.639ZM595.162 257.328C591.997 252.614 589.946 245.906 589.946 236.34H565.946C565.946 249.27 568.73 261.013 575.234 270.704L595.162 257.328ZM589.946 236.34V97.368H565.946V236.34H589.946ZM577.946 109.368H625.602V85.368H577.946V109.368ZM613.602 97.368V234.564H637.602V97.368H613.602ZM613.602 234.564C613.602 240.82 615.152 247.723 620.362 252.992C625.597 258.285 632.499 259.884 638.774 259.884V235.884C637.555 235.884 636.98 235.726 636.844 235.68C636.769 235.655 637.066 235.751 637.428 236.116C637.786 236.479 637.863 236.758 637.822 236.635C637.763 236.455 637.602 235.831 637.602 234.564H613.602ZM638.774 259.884C642.392 259.884 646.07 259.497 649.786 258.777L645.226 235.215C642.825 235.679 640.682 235.884 638.774 235.884V259.884ZM650.07 258.719C653.868 257.888 658.028 256.636 662.494 255.041L654.422 232.439C650.6 233.804 647.458 234.723 644.942 235.273L650.07 258.719ZM646.716 246.215L653.672 279.219L677.156 274.269L670.2 241.265L646.716 246.215ZM661.343 265.456C655.551 267.544 650.038 269.333 644.801 270.83L651.395 293.906C657.208 292.245 663.239 290.285 669.485 288.032L661.343 265.456ZM644.746 270.846C640.511 272.078 635.828 272.736 630.634 272.736V296.736C637.872 296.736 644.832 295.816 651.45 293.89L644.746 270.846ZM572.63 164.856V134.22H548.63V164.856H572.63ZM560.63 146.22H658.754V122.22H560.63V146.22ZM646.754 134.22V164.856H670.754V134.22H646.754ZM658.754 152.856H560.63V176.856H658.754V152.856ZM700.509 201.856L688.516 202.294L688.939 213.856H700.509V201.856ZM695.773 72.208V60.208H683.326L683.781 72.6461L695.773 72.208ZM747.573 72.208L759.562 72.7007L760.076 60.208H747.573V72.208ZM742.245 201.856V213.856H753.761L754.234 202.349L742.245 201.856ZM698.881 274.228L690.468 282.785L690.541 282.857L690.616 282.928L698.881 274.228ZM698.881 230.568L690.467 222.012L690.431 222.047L690.395 222.083L698.881 230.568ZM744.909 230.568L753.181 221.875L753.181 221.875L744.909 230.568ZM744.909 274.228L753.03 283.062L753.068 283.027L753.106 282.991L744.909 274.228ZM712.501 201.418L707.765 71.7699L683.781 72.6461L688.516 202.294L712.501 201.418ZM695.773 84.208H747.573V60.208H695.773V84.208ZM735.583 71.7153L730.255 201.363L754.234 202.349L759.562 72.7007L735.583 71.7153ZM742.245 189.856H700.509V213.856H742.245V189.856ZM721.821 270.664C715.033 270.664 710.504 268.718 707.145 265.528L690.616 282.928C699.097 290.986 709.861 294.664 721.821 294.664V270.664ZM707.293 265.671C704.007 262.441 702.149 258.291 702.149 252.176H678.149C678.149 264.019 682.111 274.57 690.468 282.785L707.293 265.671ZM702.149 252.176C702.149 246.623 703.9 242.519 707.366 239.053L690.395 222.083C682.219 230.259 678.149 240.561 678.149 252.176H702.149ZM707.294 239.124C710.674 235.801 715.153 233.836 721.821 233.836V209.836C709.741 209.836 698.927 213.692 690.467 222.012L707.294 239.124ZM721.821 233.836C728.346 233.836 732.978 235.78 736.636 239.261L753.181 221.875C744.604 213.713 733.845 209.836 721.821 209.836V233.836ZM736.636 239.261C740.329 242.775 742.085 246.816 742.085 252.176H766.085C766.085 240.368 761.723 230.003 753.181 221.875L736.636 239.261ZM742.085 252.176C742.085 258.1 740.214 262.187 736.711 265.465L753.106 282.991C761.838 274.823 766.085 264.209 766.085 252.176H742.085ZM736.787 265.394C733.147 268.74 728.464 270.664 721.821 270.664V294.664C733.726 294.664 744.435 290.964 753.03 283.062L736.787 265.394Z" fill="url(#paint0_linear_186_225)" mask="url(#path-1-outside-1_186_225)"/>
<rect y="149" width="1063" height="157" rx="78.5" fill="url(#paint1_linear_186_225)"/>
<mask id="path-4-outside-2_186_225" maskUnits="userSpaceOnUse" x="86" y="60" width="681" height="237" fill="black">
<rect fill="white" x="86" y="60" width="681" height="237"/>
<path d="M98.056 280V241.372L163.324 172.404H98.056V134.22H214.976V172.404L153.26 241.372H214.976V280H98.056ZM316.238 284.736C304.003 284.736 292.509 281.579 281.754 275.264C270.999 268.949 262.267 259.921 255.558 248.18C248.947 236.439 245.642 222.527 245.642 206.444C245.642 190.361 248.947 176.597 255.558 165.152C262.169 153.608 270.851 144.777 281.606 138.66C292.361 132.543 303.905 129.484 316.238 129.484C328.473 129.484 339.129 131.951 348.206 136.884C357.283 141.719 364.585 148.28 370.11 156.568C375.734 164.856 379.385 174.229 381.062 184.688C382.838 195.048 382.493 205.753 380.026 216.804H283.086V192.828H345.394L338.586 197.268C338.882 193.815 338.734 190.312 338.142 186.76C337.649 183.208 336.613 179.952 335.034 176.992C333.455 173.933 331.186 171.516 328.226 169.74C325.365 167.865 321.665 166.928 317.126 166.928C312.094 166.928 307.703 168.161 303.954 170.628C300.303 172.996 297.442 176.499 295.37 181.136C293.397 185.675 292.41 191.249 292.41 197.86V216.508C292.41 222.724 293.298 228.101 295.074 232.64C296.85 237.179 299.465 240.731 302.918 243.296C306.47 245.763 310.91 246.996 316.238 246.996C320.579 246.996 324.378 246.108 327.634 244.332C330.89 242.556 333.159 239.744 334.442 235.896H381.506C380.026 244.973 376.375 253.212 370.554 260.612C364.831 268.012 357.333 273.883 348.058 278.224C338.882 282.565 328.275 284.736 316.238 284.736ZM476.478 284.736C462.566 284.736 450.282 282.911 439.626 279.26C428.97 275.511 420.633 269.936 414.614 262.536C408.694 255.037 405.783 245.615 405.882 234.268H448.654C448.851 239.399 450.825 242.951 454.574 244.924C458.422 246.897 463.602 247.884 470.114 247.884C474.061 247.884 477.317 247.391 479.882 246.404C482.447 245.417 484.371 244.135 485.654 242.556C486.937 240.879 487.578 239.103 487.578 237.228C487.578 234.761 486.69 232.788 484.914 231.308C483.138 229.828 480.375 228.348 476.626 226.868L441.254 213.104C430.795 208.763 422.705 203.287 416.982 196.676C411.358 189.967 408.546 182.024 408.546 172.848C408.546 159.923 414.515 149.464 426.454 141.472C438.393 133.48 454.722 129.484 475.442 129.484C494.879 129.484 509.827 134.023 520.286 143.1C530.745 152.177 536.023 163.721 536.122 177.732H492.758C492.758 174.575 491.426 171.861 488.762 169.592C486.098 167.224 481.658 166.04 475.442 166.04C470.311 166.04 466.266 166.879 463.306 168.556C460.346 170.233 458.866 172.453 458.866 175.216C458.866 178.965 461.974 181.925 468.19 184.096L508.446 200.228C518.411 204.175 526.255 209.108 531.978 215.028C537.701 220.948 540.562 228.348 540.562 237.228C540.562 245.319 537.75 253.015 532.126 260.316C526.601 267.519 519.003 273.389 509.334 277.928C499.665 282.467 488.713 284.736 476.478 284.736ZM630.634 284.736C621.359 284.736 612.677 283.059 604.586 279.704C596.594 276.349 590.131 271.12 585.198 264.016C580.363 256.813 577.946 247.588 577.946 236.34V97.368H625.602V234.564C625.602 243.444 629.993 247.884 638.774 247.884C641.537 247.884 644.447 247.588 647.506 246.996C650.663 246.305 654.314 245.22 658.458 243.74L665.414 276.744C659.395 278.915 653.623 280.789 648.098 282.368C642.671 283.947 636.85 284.736 630.634 284.736ZM560.63 164.856V134.22H658.754V164.856H560.63ZM700.509 201.856L695.773 72.208H747.573L742.245 201.856H700.509ZM721.821 282.664C712.447 282.664 704.801 279.852 698.881 274.228C693.059 268.505 690.149 261.155 690.149 252.176C690.149 243.592 693.059 236.389 698.881 230.568C704.801 224.747 712.447 221.836 721.821 221.836C731.095 221.836 738.791 224.747 744.909 230.568C751.026 236.389 754.085 243.592 754.085 252.176C754.085 261.155 751.026 268.505 744.909 274.228C738.791 279.852 731.095 282.664 721.821 282.664Z"/>
</mask>
<path d="M98.056 280V241.372L163.324 172.404H98.056V134.22H214.976V172.404L153.26 241.372H214.976V280H98.056ZM316.238 284.736C304.003 284.736 292.509 281.579 281.754 275.264C270.999 268.949 262.267 259.921 255.558 248.18C248.947 236.439 245.642 222.527 245.642 206.444C245.642 190.361 248.947 176.597 255.558 165.152C262.169 153.608 270.851 144.777 281.606 138.66C292.361 132.543 303.905 129.484 316.238 129.484C328.473 129.484 339.129 131.951 348.206 136.884C357.283 141.719 364.585 148.28 370.11 156.568C375.734 164.856 379.385 174.229 381.062 184.688C382.838 195.048 382.493 205.753 380.026 216.804H283.086V192.828H345.394L338.586 197.268C338.882 193.815 338.734 190.312 338.142 186.76C337.649 183.208 336.613 179.952 335.034 176.992C333.455 173.933 331.186 171.516 328.226 169.74C325.365 167.865 321.665 166.928 317.126 166.928C312.094 166.928 307.703 168.161 303.954 170.628C300.303 172.996 297.442 176.499 295.37 181.136C293.397 185.675 292.41 191.249 292.41 197.86V216.508C292.41 222.724 293.298 228.101 295.074 232.64C296.85 237.179 299.465 240.731 302.918 243.296C306.47 245.763 310.91 246.996 316.238 246.996C320.579 246.996 324.378 246.108 327.634 244.332C330.89 242.556 333.159 239.744 334.442 235.896H381.506C380.026 244.973 376.375 253.212 370.554 260.612C364.831 268.012 357.333 273.883 348.058 278.224C338.882 282.565 328.275 284.736 316.238 284.736ZM476.478 284.736C462.566 284.736 450.282 282.911 439.626 279.26C428.97 275.511 420.633 269.936 414.614 262.536C408.694 255.037 405.783 245.615 405.882 234.268H448.654C448.851 239.399 450.825 242.951 454.574 244.924C458.422 246.897 463.602 247.884 470.114 247.884C474.061 247.884 477.317 247.391 479.882 246.404C482.447 245.417 484.371 244.135 485.654 242.556C486.937 240.879 487.578 239.103 487.578 237.228C487.578 234.761 486.69 232.788 484.914 231.308C483.138 229.828 480.375 228.348 476.626 226.868L441.254 213.104C430.795 208.763 422.705 203.287 416.982 196.676C411.358 189.967 408.546 182.024 408.546 172.848C408.546 159.923 414.515 149.464 426.454 141.472C438.393 133.48 454.722 129.484 475.442 129.484C494.879 129.484 509.827 134.023 520.286 143.1C530.745 152.177 536.023 163.721 536.122 177.732H492.758C492.758 174.575 491.426 171.861 488.762 169.592C486.098 167.224 481.658 166.04 475.442 166.04C470.311 166.04 466.266 166.879 463.306 168.556C460.346 170.233 458.866 172.453 458.866 175.216C458.866 178.965 461.974 181.925 468.19 184.096L508.446 200.228C518.411 204.175 526.255 209.108 531.978 215.028C537.701 220.948 540.562 228.348 540.562 237.228C540.562 245.319 537.75 253.015 532.126 260.316C526.601 267.519 519.003 273.389 509.334 277.928C499.665 282.467 488.713 284.736 476.478 284.736ZM630.634 284.736C621.359 284.736 612.677 283.059 604.586 279.704C596.594 276.349 590.131 271.12 585.198 264.016C580.363 256.813 577.946 247.588 577.946 236.34V97.368H625.602V234.564C625.602 243.444 629.993 247.884 638.774 247.884C641.537 247.884 644.447 247.588 647.506 246.996C650.663 246.305 654.314 245.22 658.458 243.74L665.414 276.744C659.395 278.915 653.623 280.789 648.098 282.368C642.671 283.947 636.85 284.736 630.634 284.736ZM560.63 164.856V134.22H658.754V164.856H560.63ZM700.509 201.856L695.773 72.208H747.573L742.245 201.856H700.509ZM721.821 282.664C712.447 282.664 704.801 279.852 698.881 274.228C693.059 268.505 690.149 261.155 690.149 252.176C690.149 243.592 693.059 236.389 698.881 230.568C704.801 224.747 712.447 221.836 721.821 221.836C731.095 221.836 738.791 224.747 744.909 230.568C751.026 236.389 754.085 243.592 754.085 252.176C754.085 261.155 751.026 268.505 744.909 274.228C738.791 279.852 731.095 282.664 721.821 282.664Z" fill="white"/>
<path d="M98.056 280H86.056V292H98.056V280ZM98.056 241.372L89.3401 233.124L86.056 236.594V241.372H98.056ZM163.324 172.404L172.04 180.652L191.202 160.404H163.324V172.404ZM98.056 172.404H86.056V184.404H98.056V172.404ZM98.056 134.22V122.22H86.056V134.22H98.056ZM214.976 134.22H226.976V122.22H214.976V134.22ZM214.976 172.404L223.918 180.406L226.976 176.989V172.404H214.976ZM153.26 241.372L144.318 233.37L126.419 253.372H153.26V241.372ZM214.976 241.372H226.976V229.372H214.976V241.372ZM214.976 280V292H226.976V280H214.976ZM110.056 280V241.372H86.056V280H110.056ZM106.772 249.62L172.04 180.652L154.608 164.156L89.3401 233.124L106.772 249.62ZM163.324 160.404H98.056V184.404H163.324V160.404ZM110.056 172.404V134.22H86.056V172.404H110.056ZM98.056 146.22H214.976V122.22H98.056V146.22ZM202.976 134.22V172.404H226.976V134.22H202.976ZM206.034 164.402L144.318 233.37L162.202 249.374L223.918 180.406L206.034 164.402ZM153.26 253.372H214.976V229.372H153.26V253.372ZM202.976 241.372V280H226.976V241.372H202.976ZM214.976 268H98.056V292H214.976V268ZM281.754 275.264L287.83 264.916L287.83 264.916L281.754 275.264ZM255.558 248.18L245.102 254.067L245.12 254.101L245.139 254.134L255.558 248.18ZM255.558 165.152L265.949 171.154L265.96 171.135L265.972 171.115L255.558 165.152ZM281.606 138.66L287.539 149.091L287.539 149.091L281.606 138.66ZM348.206 136.884L342.476 147.427L342.52 147.452L342.565 147.475L348.206 136.884ZM370.11 156.568L360.125 163.224L360.153 163.265L360.18 163.306L370.11 156.568ZM381.062 184.688L369.213 186.588L369.224 186.652L369.235 186.716L381.062 184.688ZM380.026 216.804V228.804H389.643L391.738 219.418L380.026 216.804ZM283.086 216.804H271.086V228.804H283.086V216.804ZM283.086 192.828V180.828H271.086V192.828H283.086ZM345.394 192.828L351.949 202.879L385.761 180.828H345.394V192.828ZM338.586 197.268L326.63 196.243L324.528 220.763L345.141 207.319L338.586 197.268ZM338.142 186.76L326.256 188.411L326.279 188.572L326.305 188.733L338.142 186.76ZM335.034 176.992L324.371 182.496L324.408 182.568L324.446 182.639L335.034 176.992ZM328.226 169.74L321.65 179.778L321.848 179.908L322.052 180.03L328.226 169.74ZM303.954 170.628L310.484 180.696L310.517 180.674L310.549 180.653L303.954 170.628ZM295.37 181.136L284.414 176.241L284.389 176.296L284.365 176.351L295.37 181.136ZM302.918 243.296L295.762 252.929L295.916 253.043L296.073 253.152L302.918 243.296ZM327.634 244.332L321.888 233.797L321.888 233.797L327.634 244.332ZM334.442 235.896V223.896H325.793L323.058 232.101L334.442 235.896ZM381.506 235.896L393.35 237.827L395.621 223.896H381.506V235.896ZM370.554 260.612L361.123 253.193L361.092 253.232L361.061 253.271L370.554 260.612ZM348.058 278.224L342.971 267.356L342.948 267.366L342.926 267.377L348.058 278.224ZM316.238 272.736C306.183 272.736 296.78 270.171 287.83 264.916L275.678 285.612C288.238 292.986 301.824 296.736 316.238 296.736V272.736ZM287.83 264.916C279.033 259.75 271.737 252.307 265.977 242.226L245.139 254.134C252.797 267.536 262.966 278.148 275.678 285.612L287.83 264.916ZM266.015 242.293C260.595 232.667 257.642 220.864 257.642 206.444H233.642C233.642 224.19 237.3 240.21 245.102 254.067L266.015 242.293ZM257.642 206.444C257.642 192.013 260.599 180.417 265.949 171.154L245.167 159.15C237.296 172.778 233.642 188.709 233.642 206.444H257.642ZM265.972 171.115C271.598 161.289 278.791 154.067 287.539 149.091L275.673 128.229C262.912 135.488 252.739 145.927 245.145 159.189L265.972 171.115ZM287.539 149.091C296.492 143.998 305.992 141.484 316.238 141.484V117.484C301.817 117.484 288.23 121.087 275.673 128.229L287.539 149.091ZM316.238 141.484C326.84 141.484 335.455 143.612 342.476 147.427L353.936 126.34C342.802 120.29 330.106 117.484 316.238 117.484V141.484ZM342.565 147.475C349.951 151.409 355.737 156.642 360.125 163.224L380.095 149.912C373.432 139.918 364.616 132.028 353.847 126.293L342.565 147.475ZM360.18 163.306C364.762 170.058 367.798 177.761 369.213 186.588L392.911 182.788C390.972 170.697 386.706 159.654 380.04 149.83L360.18 163.306ZM369.235 186.716C370.727 195.42 370.467 204.545 368.314 214.19L391.738 219.418C394.518 206.961 394.949 194.676 392.89 182.66L369.235 186.716ZM380.026 204.804H283.086V228.804H380.026V204.804ZM295.086 216.804V192.828H271.086V216.804H295.086ZM283.086 204.828H345.394V180.828H283.086V204.828ZM338.839 182.777L332.031 187.217L345.141 207.319L351.949 202.879L338.839 182.777ZM350.542 198.293C350.927 193.801 350.729 189.291 349.979 184.787L326.305 188.733C326.739 191.333 326.837 193.828 326.63 196.243L350.542 198.293ZM350.028 185.109C349.354 180.256 347.91 175.634 345.622 171.345L324.446 182.639C325.316 184.27 325.944 186.16 326.256 188.411L350.028 185.109ZM345.698 171.488C343.093 166.442 339.266 162.37 334.4 159.45L322.052 180.03C323.106 180.662 323.818 181.425 324.371 182.496L345.698 171.488ZM334.802 159.702C329.443 156.191 323.253 154.928 317.126 154.928V178.928C320.077 178.928 321.287 179.54 321.65 179.778L334.802 159.702ZM317.126 154.928C310.044 154.928 303.298 156.695 297.359 160.603L310.549 180.653C312.109 179.627 314.144 178.928 317.126 178.928V154.928ZM297.424 160.56C291.522 164.388 287.27 169.849 284.414 176.241L306.326 186.031C307.614 183.148 309.084 181.604 310.484 180.696L297.424 160.56ZM284.365 176.351C281.555 182.815 280.41 190.126 280.41 197.86H304.41C304.41 192.372 305.239 188.534 306.375 185.921L284.365 176.351ZM280.41 197.86V216.508H304.41V197.86H280.41ZM280.41 216.508C280.41 223.826 281.451 230.755 283.899 237.013L306.249 228.267C305.145 225.447 304.41 221.622 304.41 216.508H280.41ZM283.899 237.013C286.383 243.361 290.271 248.85 295.762 252.929L310.074 233.663C308.658 232.612 307.317 230.996 306.249 228.267L283.899 237.013ZM296.073 253.152C302.06 257.31 309.037 258.996 316.238 258.996V234.996C312.783 234.996 310.88 234.216 309.763 233.44L296.073 253.152ZM316.238 258.996C322.244 258.996 328.083 257.756 333.38 254.867L321.888 233.797C320.673 234.46 318.915 234.996 316.238 234.996V258.996ZM333.38 254.867C339.56 251.496 343.682 246.124 345.826 239.691L323.058 232.101C322.637 233.364 322.22 233.616 321.888 233.797L333.38 254.867ZM334.442 247.896H381.506V223.896H334.442V247.896ZM369.662 233.965C368.517 240.989 365.72 247.349 361.123 253.193L379.986 268.031C387.031 259.075 391.535 248.957 393.35 237.827L369.662 233.965ZM361.061 253.271C356.614 259.023 350.684 263.745 342.971 267.356L353.145 289.092C363.981 284.02 373.049 277.001 380.047 267.953L361.061 253.271ZM342.926 267.377C335.625 270.831 326.827 272.736 316.238 272.736V296.736C329.724 296.736 342.139 294.3 353.19 289.071L342.926 267.377ZM439.626 279.26L435.643 290.58L435.69 290.596L435.737 290.612L439.626 279.26ZM414.614 262.536L405.196 269.972L405.25 270.04L405.305 270.108L414.614 262.536ZM405.882 234.268V222.268H393.986L393.883 234.164L405.882 234.268ZM448.654 234.268L460.645 233.807L460.201 222.268H448.654V234.268ZM454.574 244.924L448.985 255.543L449.042 255.573L449.098 255.602L454.574 244.924ZM479.882 246.404L475.574 235.204L475.574 235.204L479.882 246.404ZM485.654 242.556L494.967 250.123L495.079 249.986L495.186 249.845L485.654 242.556ZM484.914 231.308L492.596 222.089L492.596 222.089L484.914 231.308ZM476.626 226.868L481.032 215.706L481.005 215.695L480.978 215.685L476.626 226.868ZM441.254 213.104L436.654 224.187L436.777 224.239L436.903 224.287L441.254 213.104ZM416.982 196.676L407.786 204.385L407.847 204.458L407.909 204.53L416.982 196.676ZM426.454 141.472L433.13 151.444L433.13 151.444L426.454 141.472ZM536.122 177.732V189.732H548.207L548.122 177.647L536.122 177.732ZM492.758 177.732H480.758V189.732H492.758V177.732ZM488.762 169.592L480.79 178.561L480.884 178.645L480.981 178.727L488.762 169.592ZM463.306 168.556L469.222 178.996L469.222 178.996L463.306 168.556ZM468.19 184.096L472.654 172.957L472.402 172.856L472.146 172.767L468.19 184.096ZM508.446 200.228L503.982 211.367L504.005 211.376L504.028 211.385L508.446 200.228ZM531.978 215.028L540.606 206.688L540.606 206.688L531.978 215.028ZM532.126 260.316L522.619 252.993L522.612 253.003L522.605 253.012L532.126 260.316ZM509.334 277.928L504.235 267.065L504.235 267.065L509.334 277.928ZM476.478 272.736C463.59 272.736 452.665 271.042 443.515 267.908L435.737 290.612C447.899 294.779 461.542 296.736 476.478 296.736V272.736ZM443.609 267.94C434.651 264.789 428.307 260.354 423.924 254.964L405.305 270.108C412.958 279.518 423.289 286.233 435.643 290.58L443.609 267.94ZM424.033 255.1C420.111 250.132 417.802 243.519 417.882 234.372L393.883 234.164C393.765 247.71 397.278 259.942 405.196 269.972L424.033 255.1ZM405.882 246.268H448.654V222.268H405.882V246.268ZM436.663 234.729C436.984 243.078 440.579 251.119 448.985 255.543L460.163 234.305C460.16 234.303 460.189 234.318 460.24 234.355C460.292 234.392 460.358 234.445 460.43 234.515C460.586 234.666 460.702 234.827 460.772 234.952C460.909 235.199 460.69 234.974 460.645 233.807L436.663 234.729ZM449.098 255.602C455.282 258.773 462.58 259.884 470.114 259.884V235.884C464.624 235.884 461.562 235.022 460.05 234.246L449.098 255.602ZM470.114 259.884C474.945 259.884 479.791 259.296 484.19 257.604L475.574 235.204C474.843 235.485 473.177 235.884 470.114 235.884V259.884ZM484.19 257.604C488.051 256.119 491.978 253.803 494.967 250.123L476.341 234.989C476.555 234.726 476.687 234.654 476.593 234.717C476.489 234.787 476.182 234.97 475.574 235.204L484.19 257.604ZM495.186 249.845C497.857 246.353 499.578 242.067 499.578 237.228H475.578C475.578 236.765 475.663 236.3 475.81 235.89C475.953 235.496 476.105 235.289 476.122 235.267L495.186 249.845ZM499.578 237.228C499.578 231.472 497.311 226.018 492.596 222.089L477.232 240.527C476.819 240.183 476.323 239.608 475.969 238.822C475.625 238.058 475.578 237.455 475.578 237.228H499.578ZM492.596 222.089C489.37 219.401 485.225 217.361 481.032 215.706L472.22 238.03C475.526 239.335 476.906 240.255 477.232 240.527L492.596 222.089ZM480.978 215.685L445.606 201.921L436.903 224.287L472.275 238.051L480.978 215.685ZM445.855 202.021C436.627 198.19 430.252 193.671 426.055 188.822L407.909 204.53C415.157 212.903 424.964 219.335 436.654 224.187L445.855 202.021ZM426.179 188.967C422.458 184.529 420.546 179.352 420.546 172.848H396.546C396.546 184.696 400.258 195.405 407.786 204.385L426.179 188.967ZM420.546 172.848C420.546 164.425 424.082 157.5 433.13 151.444L419.779 131.5C404.949 141.428 396.546 155.421 396.546 172.848H420.546ZM433.13 151.444C442.399 145.239 456.097 141.484 475.442 141.484V117.484C453.347 117.484 434.387 121.721 419.779 131.5L433.13 151.444ZM475.442 141.484C493.148 141.484 504.884 145.621 512.42 152.163L528.152 134.037C514.771 122.424 496.611 117.484 475.442 117.484V141.484ZM512.42 152.163C520.24 158.95 524.048 167.207 524.122 177.817L548.122 177.647C547.999 160.236 541.249 145.405 528.152 134.037L512.42 152.163ZM536.122 165.732H492.758V189.732H536.122V165.732ZM504.758 177.732C504.758 170.651 501.558 164.728 496.544 160.457L480.981 178.727C481.259 178.964 481.15 178.948 480.987 178.617C480.91 178.461 480.847 178.283 480.806 178.102C480.765 177.924 480.758 177.792 480.758 177.732H504.758ZM496.734 160.623C490.739 155.294 482.605 154.04 475.442 154.04V178.04C477.847 178.04 479.414 178.275 480.342 178.523C481.259 178.767 481.202 178.928 480.79 178.561L496.734 160.623ZM475.442 154.04C469.209 154.04 462.844 155.025 457.39 158.116L469.222 178.996C469.688 178.732 471.413 178.04 475.442 178.04V154.04ZM457.39 158.116C451.693 161.344 446.866 167.072 446.866 175.216H470.866C470.866 176.115 470.583 177.201 469.961 178.135C469.413 178.957 468.939 179.157 469.222 178.996L457.39 158.116ZM446.866 175.216C446.866 187.31 457.224 192.977 464.234 195.425L472.146 172.767C471.082 172.395 470.357 172.06 469.896 171.807C469.429 171.55 469.348 171.439 469.473 171.558C469.615 171.694 469.998 172.105 470.337 172.836C470.692 173.601 470.866 174.437 470.866 175.216H446.866ZM463.726 195.235L503.982 211.367L512.91 189.089L472.654 172.957L463.726 195.235ZM504.028 211.385C512.864 214.885 519.115 218.987 523.35 223.368L540.606 206.688C533.396 199.229 523.959 193.465 512.865 189.071L504.028 211.385ZM523.35 223.368C526.73 226.865 528.562 231.192 528.562 237.228H552.562C552.562 225.504 548.671 215.031 540.606 206.688L523.35 223.368ZM528.562 237.228C528.562 242.307 526.863 247.485 522.619 252.993L541.633 267.639C548.638 258.545 552.562 248.33 552.562 237.228H528.562ZM522.605 253.012C518.438 258.444 512.473 263.198 504.235 267.065L514.433 288.791C525.533 283.58 534.764 276.593 541.647 267.62L522.605 253.012ZM504.235 267.065C496.378 270.753 487.206 272.736 476.478 272.736V296.736C490.219 296.736 502.952 294.18 514.433 288.791L504.235 267.065ZM604.586 279.704L599.942 290.769L599.966 290.779L599.99 290.789L604.586 279.704ZM585.198 264.016L575.234 270.704L575.287 270.783L575.342 270.861L585.198 264.016ZM577.946 97.368V85.368H565.946V97.368H577.946ZM625.602 97.368H637.602V85.368H625.602V97.368ZM647.506 246.996L649.786 258.777L649.929 258.75L650.07 258.719L647.506 246.996ZM658.458 243.74L670.2 241.265L667.366 227.816L654.422 232.439L658.458 243.74ZM665.414 276.744L669.485 288.032L679.31 284.489L677.156 274.269L665.414 276.744ZM648.098 282.368L644.801 270.83L644.774 270.838L644.746 270.846L648.098 282.368ZM560.63 164.856H548.63V176.856H560.63V164.856ZM560.63 134.22V122.22H548.63V134.22H560.63ZM658.754 134.22H670.754V122.22H658.754V134.22ZM658.754 164.856V176.856H670.754V164.856H658.754ZM630.634 272.736C622.842 272.736 615.731 271.335 609.182 268.619L599.99 290.789C609.622 294.783 619.876 296.736 630.634 296.736V272.736ZM609.23 268.639C603.337 266.165 598.684 262.398 595.054 257.171L575.342 270.861C581.579 279.842 589.851 286.533 599.942 290.769L609.23 268.639ZM595.162 257.328C591.997 252.614 589.946 245.906 589.946 236.34H565.946C565.946 249.27 568.73 261.013 575.234 270.704L595.162 257.328ZM589.946 236.34V97.368H565.946V236.34H589.946ZM577.946 109.368H625.602V85.368H577.946V109.368ZM613.602 97.368V234.564H637.602V97.368H613.602ZM613.602 234.564C613.602 240.82 615.152 247.723 620.362 252.992C625.597 258.285 632.499 259.884 638.774 259.884V235.884C637.555 235.884 636.98 235.726 636.844 235.68C636.769 235.655 637.066 235.751 637.428 236.116C637.786 236.479 637.863 236.758 637.822 236.635C637.763 236.455 637.602 235.831 637.602 234.564H613.602ZM638.774 259.884C642.392 259.884 646.07 259.497 649.786 258.777L645.226 235.215C642.825 235.679 640.682 235.884 638.774 235.884V259.884ZM650.07 258.719C653.868 257.888 658.028 256.636 662.494 255.041L654.422 232.439C650.6 233.804 647.458 234.723 644.942 235.273L650.07 258.719ZM646.716 246.215L653.672 279.219L677.156 274.269L670.2 241.265L646.716 246.215ZM661.343 265.456C655.551 267.544 650.038 269.333 644.801 270.83L651.395 293.906C657.208 292.245 663.239 290.285 669.485 288.032L661.343 265.456ZM644.746 270.846C640.511 272.078 635.828 272.736 630.634 272.736V296.736C637.872 296.736 644.832 295.816 651.45 293.89L644.746 270.846ZM572.63 164.856V134.22H548.63V164.856H572.63ZM560.63 146.22H658.754V122.22H560.63V146.22ZM646.754 134.22V164.856H670.754V134.22H646.754ZM658.754 152.856H560.63V176.856H658.754V152.856ZM700.509 201.856L688.516 202.294L688.939 213.856H700.509V201.856ZM695.773 72.208V60.208H683.326L683.781 72.6461L695.773 72.208ZM747.573 72.208L759.562 72.7007L760.076 60.208H747.573V72.208ZM742.245 201.856V213.856H753.761L754.234 202.349L742.245 201.856ZM698.881 274.228L690.468 282.785L690.541 282.857L690.616 282.928L698.881 274.228ZM698.881 230.568L690.467 222.012L690.431 222.047L690.395 222.083L698.881 230.568ZM744.909 230.568L753.181 221.875L753.181 221.875L744.909 230.568ZM744.909 274.228L753.03 283.062L753.068 283.027L753.106 282.991L744.909 274.228ZM712.501 201.418L707.765 71.7699L683.781 72.6461L688.516 202.294L712.501 201.418ZM695.773 84.208H747.573V60.208H695.773V84.208ZM735.583 71.7153L730.255 201.363L754.234 202.349L759.562 72.7007L735.583 71.7153ZM742.245 189.856H700.509V213.856H742.245V189.856ZM721.821 270.664C715.033 270.664 710.504 268.718 707.145 265.528L690.616 282.928C699.097 290.986 709.861 294.664 721.821 294.664V270.664ZM707.293 265.671C704.007 262.441 702.149 258.291 702.149 252.176H678.149C678.149 264.019 682.111 274.57 690.468 282.785L707.293 265.671ZM702.149 252.176C702.149 246.623 703.9 242.519 707.366 239.053L690.395 222.083C682.219 230.259 678.149 240.561 678.149 252.176H702.149ZM707.294 239.124C710.674 235.801 715.153 233.836 721.821 233.836V209.836C709.741 209.836 698.927 213.692 690.467 222.012L707.294 239.124ZM721.821 233.836C728.346 233.836 732.978 235.78 736.636 239.261L753.181 221.875C744.604 213.713 733.845 209.836 721.821 209.836V233.836ZM736.636 239.261C740.329 242.775 742.085 246.816 742.085 252.176H766.085C766.085 240.368 761.723 230.003 753.181 221.875L736.636 239.261ZM742.085 252.176C742.085 258.1 740.214 262.187 736.711 265.465L753.106 282.991C761.838 274.823 766.085 264.209 766.085 252.176H742.085ZM736.787 265.394C733.147 268.74 728.464 270.664 721.821 270.664V294.664C733.726 294.664 744.435 290.964 753.03 283.062L736.787 265.394Z" fill="url(#paint2_linear_186_225)" mask="url(#path-4-outside-2_186_225)"/>
<path d="M967.277 0.000976562C967.277 0.000976562 991.046 10.0394 993.244 44.5672C995.443 79.0992 973.136 92.0818 973.136 92.0818C973.136 92.0818 949.363 82.0434 947.167 47.5148C944.968 12.9819 967.277 0.000976562 967.277 0.000976562Z" fill="#72BD39"/>
<path d="M993.244 44.567C991.047 10.0376 967.277 0 967.277 0C967.277 0 967.135 0.0841944 966.898 0.238269L972.739 91.8998C972.987 92.0185 973.136 92.0825 973.136 92.0825C973.136 92.0825 995.443 79.099 993.244 44.567Z" fill="#51A448"/>
<path d="M960.119 242.921C999.547 203.479 1012.39 150.557 993.274 116.483C993.867 116.032 994.449 115.55 994.992 115.009C1001.41 108.587 1001.41 98.1752 994.992 91.7512C988.572 85.3289 978.163 85.3289 971.744 91.7512C971.203 92.2926 970.721 92.8743 970.271 93.4696C936.208 74.3459 883.303 87.1955 843.88 126.634C804.453 166.075 791.608 218.994 810.726 253.069C810.134 253.522 809.551 254.001 809.008 254.543C802.589 260.965 802.589 271.378 809.008 277.797C815.429 284.219 825.835 284.219 832.255 277.797C832.798 277.253 833.278 276.674 833.728 276.079C867.792 295.207 920.695 282.359 960.119 242.921Z" fill="#FFF700"/>
<path d="M993.274 116.482C993.868 116.031 994.45 115.549 994.993 115.008C1001.41 108.586 1001.41 98.1744 994.993 91.7504C994.926 91.6839 994.854 91.6283 994.785 91.5635L808.566 277.31C808.716 277.472 808.851 277.642 809.009 277.799C815.431 284.221 825.837 284.221 832.257 277.799C832.8 277.255 833.28 276.676 833.73 276.08C867.793 295.204 920.698 282.354 960.121 242.917C999.548 203.476 1012.39 150.556 993.274 116.482Z" fill="#EDE500"/>
<defs>
<linearGradient id="paint0_linear_186_225" x1="4.97349e-05" y1="306" x2="448.035" y2="-303.243" gradientUnits="userSpaceOnUse">
<stop stop-color="#FFF700"/>
<stop offset="1" stop-color="#E44B45"/>
</linearGradient>
<linearGradient id="paint1_linear_186_225" x1="-1.08525e-05" y1="306" x2="55.6817" y2="-22.0026" gradientUnits="userSpaceOnUse">
<stop stop-color="#FFF700"/>
<stop offset="1" stop-color="#E44B45"/>
</linearGradient>
<linearGradient id="paint2_linear_186_225" x1="4.97349e-05" y1="306" x2="448.035" y2="-303.243" gradientUnits="userSpaceOnUse">
<stop stop-color="#FFF700"/>
<stop offset="1" stop-color="#E44B45"/>
</linearGradient>
</defs>
</svg>
